<svg xmlns="http://www.w3.org/2000/svg" xmlns:xlink="http://www.w3.org/1999/xlink" viewBox="0 0 500 500"><defs><clipPath id="clip-path"><path d="M45.025,176.3514c1.205-27.1944,8.8683-53.5094,25.8136-77.7549C134.5663,7.4148,293.70429,9.3016,381.63339,60.314c26.4021,15.3173,49.08761,38.85,58.1238,68.0055,7.2985,23.5489,5.3335,48.7935,5.13781,73.4467-.22071,27.7963,5.56689,48.3965,16.70579,73.311,8.9153,19.941,10.7387,43.6669,7.0546,65.0148-7.9939,46.3214-41.9657,83.8817-82.6703,105.239-64.69409,33.9444-167.205,34.6273-245.97149,15.3787-39.8085-9.7283-77.7994-29.5312-97.0715-57.4796C27.6085,380.993,25.2903,355.5197,30.265,332.0433c3.9999-18.8762,13.3873-35.759,21.2448-53.5694,6.2984-14.2764,3.6817-26.6654-.0256-42.1579C46.6628,216.168,44.1531,196.0295,45.025,176.3514Z" style="fill:none"/></clipPath></defs><g style="isolation:isolate"><g id="OBJECTS"><g style="clip-path:url(#clip-path)"><rect width="500" height="311.8626" style="fill:#bbdbfe;opacity:0.21"/><rect y="311.8626" width="500" height="188.1374" style="fill:#bbdbfe;opacity:0.48"/><polygon points="394.991 390.523 257.407 391.395 119.822 390.523 37.453 458.51 257.407 458.51 477.36 458.51 394.991 390.523" style="fill:#623cea"/><polygon points="390.174 394.74 257.407 395.433 127.09 394.74 68.6 448.882 257.407 448.882 446.213 448.882 390.174 394.74" style="fill:none;stroke:#fff;stroke-miterlimit:10;opacity:0.5700000000000001"/><circle cx="285.23152" cy="90.79688" r="34.76171" transform="translate(19.33929 228.28293) rotate(-45)" style="fill:#7d95bd"/><path d="M285.23149,56.0351a34.76092,34.76092,0,0,0-16.9198,65.1265h0c6.0987-1.451,3.11531-4.1263,3.11531-4.1263S292.78339,62.119,297.55129,63.83s3.9293-3.7635,3.9293-3.7635h0A34.60057,34.60057,0,0,0,285.23149,56.0351Z" style="fill:#bbdbfe"/><circle cx="285.23152" cy="90.79688" r="29.64891" transform="translate(19.33929 228.28293) rotate(-45)" style="fill:#fff"/><polyline points="285.231 66.364 285.231 90.797 296.653 101.594" style="fill:none;stroke:#bbdbfe;stroke-miterlimit:10;stroke-width:1.7762700000000002px"/><polygon points="87.4 285.602 63.924 285.602 66.216 315.32 85.109 315.32 87.4 285.602" style="fill:#fefefe"/><rect x="61.4437" y="284.0818" width="28.4372" height="3.4852" style="fill:#8b8b8c"/><path d="M84.2966,280.947H67.028a3.10352,3.10352,0,0,0-3.1035,3.1035v.0313H87.4v-.0313A3.10343,3.10343,0,0,0,84.2966,280.947Z" style="fill:#5a5a63"/><polygon points="86.094 302.533 86.65 295.334 64.675 295.334 65.23 302.533 86.094 302.533" style="fill:#623cea"/><path d="M87.4,284.0818v-.0313a3.10343,3.10343,0,0,0-3.1034-3.1035h-8.552a3.10343,3.10343,0,0,1,3.1034,3.1035v.0313h2.4809v3.4852H78.6965l-2.1399,27.7532h8.552l2.1399-27.7532h2.6324v-3.4852Z" style="fill:#afafaf;mix-blend-mode:multiply"/><rect x="27.9108" y="314.2799" width="79.1334" height="5.7352" style="fill:#9cbdeb"/><ellipse cx="63.3167" cy="416.4632" rx="35.4059" ry="5.4983"/><rect x="64.675" y="320.0151" width="5.8171" height="93.2037" style="fill:#9cbdeb"/><ellipse cx="68.08782" cy="416.0349" rx="30.63472" ry="4.1362" style="fill:#526175"/><rect x="64.675" y="320.0151" width="5.8171" height="17.5662" style="fill:#526175"/><rect x="37.4531" y="411.8987" width="61.2695" height="4.1362" style="fill:#526175"/><path d="M98.7226,411.8987c0,2.2844-13.7156,4.1362-30.6348,4.1362-16.9191,0-30.6347-1.8518-30.6347-4.1362,0-2.2843,13.7156-4.1361,30.6347-4.1361C85.007,407.7626,98.7226,409.6144,98.7226,411.8987Z" style="fill:#9cbdeb"/></g><rect x="150.99949" y="118.8023" width="91.7921" height="50.3304" style="fill:#9cbdeb;opacity:0.79"/><rect x="154.37359" y="122.005" width="84.8435" height="43.9251" style="fill:#fff"/><polyline points="154.374 122.005 154.374 165.93 239.217 165.93" style="fill:none;stroke:#7d95bd;stroke-miterlimit:10;stroke-width:0.8468px;opacity:0.64"/><path d="M239.21709,149.1718s-9.8054-15.4594-30.5937-6.9993c-20.7881,8.4602-53.9821,13.145-53.9821,13.145v11.2122h84.5758Z" style="fill:#bbdbfe;opacity:0.37"/><path d="M167.43979,139.559s23.4613.9125,29.4893-2.7383c6.0282-3.6507-17.9093-5.0883-25.4494-3.685C163.93949,134.539,149.2634,137.0494,167.43979,139.559Z" style="fill:#623cea;opacity:0.54"/><rect x="150.99949" y="73.2241" width="51.1846" height="40.7501" style="fill:#7d95bd;opacity:0.53"/><rect x="153.93759" y="75.8171" width="45.30841" height="35.564" style="fill:#fff;opacity:0.8300000000000001"/><polyline points="153.938 75.817 153.938 111.381 199.246 111.381" style="fill:none;stroke:#7d95bd;stroke-miterlimit:10;stroke-width:0.8468px;opacity:0.64"/><path d="M157.465,111.3811s-.05861-18.6422,8.05179-20.2221,11.4739,4.3736,17.2174,7.7163S199.246,97.4784,199.246,97.4784v13.9027Z" style="fill:#bbdbfe;opacity:0.37"/><path d="M192.45409,87.713a5.93775,5.93775,0,1,1-5.9378-5.9378A5.93781,5.93781,0,0,1,192.45409,87.713Z" style="fill:#623cea;opacity:0.54"/><g style="opacity:0.53"><rect x="81.2328" y="100.147" width="62.755" height="78.8241" style="fill:#9cbdeb;opacity:0.89"/><rect x="85.2261" y="104.6718" width="54.7683" height="69.7745" style="fill:#fff;opacity:0.9400000000000001"/></g><polyline points="85.226 104.672 85.226 174.446 139.994 174.446" style="fill:none;stroke:#7d95bd;stroke-miterlimit:10;stroke-width:0.8468px;opacity:0.64"/><path d="M87.8254,174.6076s9.1208-50.6925,15.7063-49.5301c6.5855,1.1623,7.3609,39.1726,15.0305,40.3895,7.6695,1.217,19.0444,9.1406,19.0444,9.1406Z" style="fill:#623cea;opacity:0.54"/><path d="M110.3715,174.6076s9.3472-35.4094,15.6666-30.5533c6.3195,4.8563,10.3495,30.436,10.3495,30.436Z" style="fill:#623cea;opacity:0.54"/><path d="M110.3715,118.8023h23.4611s-2.6314-5.1741-6.8539-4.8281a26.32821,26.32821,0,0,1-11.3288-1.5498C112.013,111.1604,110.3715,118.8023,110.3715,118.8023Z" style="fill:#fff"/><polygon points="431.09 207.94 406.576 207.94 391.583 136.507 416.097 136.507 431.09 207.94" style="fill:#89b7e8"/><polygon points="423.844 173.418 399.33 173.418 398.273 168.385 422.787 168.385 423.844 173.418"/><path d="M365.46489,105.8254H453.8137a2.6213,2.6213,0,0,1,2.6213,2.6213v57.3172a2.6212,2.6212,0,0,1-2.6212,2.6212h-88.349a2.62121,2.62121,0,0,1-2.62121-2.62121V108.4467A2.6213,2.6213,0,0,1,365.46489,105.8254Z" style="fill:#9cbdeb"/><path d="M358.36389,105.8254H446.7128a2.6212,2.6212,0,0,1,2.6212,2.6212v57.3173a2.6212,2.6212,0,0,1-2.6212,2.6212H358.3639a2.62131,2.62131,0,0,1-2.62131-2.62131V108.4467A2.6213,2.6213,0,0,1,358.36389,105.8254Z" style="fill:#bbdbfe"/><rect x="359.05639" y="109.1392" width="87.106" height="50.1109" style="fill:#fdfdfd"/><path d="M405.09719,163.8782a2.2462,2.2462,0,1,1-2.2463-2.2462A2.24621,2.24621,0,0,1,405.09719,163.8782Z" style="fill:#fff"/><path d="M362.5267,110.4501h80.3342a1.88369,1.88369,0,0,1,1.88369,1.88369v.03811a1.8837,1.8837,0,0,1-1.8837,1.8837H362.5267a1.8837,1.8837,0,0,1-1.8837-1.8837v-.0381a1.8837,1.8837,0,0,1,1.8837-1.8837Z" style="fill:#623cea"/><path d="M441.89039,112.4104a.8186.8186,0,1,0,.8187-.8186A.81856.81856,0,0,0,441.89039,112.4104Z" style="fill:#bd6b7d"/><path d="M362.7747,115.3973h28.27361A2.13169,2.13169,0,0,1,393.18,117.529V155.4844a2.1317,2.1317,0,0,1-2.1317,2.1317H362.77471a2.13171,2.13171,0,0,1-2.13171-2.13171V117.529A2.1317,2.1317,0,0,1,362.7747,115.3973Z" style="fill:#623cea"/><rect x="397.07369" y="129.2353" width="45.6354" height="15.5329" rx="2.2864" style="fill:#623cea"/><rect x="393.18" y="207.9395" width="37.90959" height="3.5093" style="fill:#609ace"/><polygon points="407.184 109.139 359.056 109.139 359.056 159.25 370.051 159.25 407.184 109.139" style="fill:#fdfdfd;opacity:0.37"/><line x1="453.81379" y1="105.8254" x2="453.81379" y2="168.3851" style="fill:none;stroke:#f3efef;stroke-miterlimit:10;stroke-width:0.729364px"/><ellipse cx="321.60739" cy="336.2629" rx="143.6847" ry="7.4018"/><rect x="261.18709" y="224.2401" width="165.4487" height="66.0507" style="fill:#fff"/><rect x="200.533" y="217.5506" width="245.06629" height="6.7032" style="fill:#bbdbfe"/><rect x="184.487" y="210.9983" width="277.15829" height="6.5523" style="fill:#fff"/><rect x="210.01469" y="224.2401" width="58.1037" height="113.3412" style="fill:#e3f3ff"/><rect x="426.63579" y="224.2401" width="10.2111" height="113.3412" style="fill:#bbdbfe"/><path d="M436.84689,337.5813V224.2401h-5.1055V331.509C431.74139,334.7856,435.32329,336.7107,436.84689,337.5813Z" style="fill:#e3f3ff;opacity:0.24"/><line x1="210.01469" y1="311.8626" x2="268.11839" y2="311.8626" style="fill:none;stroke:#bbdbfe;stroke-miterlimit:10;stroke-width:0.738605px"/><line x1="210.01469" y1="283.0528" x2="268.11839" y2="283.0528" style="fill:none;stroke:#bbdbfe;stroke-miterlimit:10;stroke-width:0.738605px"/><line x1="210.01469" y1="254.2429" x2="268.11839" y2="254.2429" style="fill:none;stroke:#bbdbfe;stroke-miterlimit:10;stroke-width:0.738605px"/><path d="M241.02389,325.2455a1.82805,1.82805,0,1,1-1.828-1.8281A1.82806,1.82806,0,0,1,241.02389,325.2455Z" style="fill:#bbdbfe"/><path d="M241.02389,297.9709a1.82805,1.82805,0,1,1-1.828-1.8281A1.82806,1.82806,0,0,1,241.02389,297.9709Z" style="fill:#bbdbfe"/><path d="M241.02389,270.5882a1.82805,1.82805,0,1,1-1.828-1.8281A1.828,1.828,0,0,1,241.02389,270.5882Z" style="fill:#bbdbfe"/><path d="M241.02389,238.913a1.82805,1.82805,0,1,1-1.828-1.8281A1.828,1.828,0,0,1,241.02389,238.913Z" style="fill:#bbdbfe"/><ellipse cx="258.37212" cy="416.03493" rx="128.79162" ry="15.19227"/><polygon points="159.063 375.405 171.735 424.963 179.703 424.963 177.887 372.395 159.063 375.405" style="fill:#526175"/><polygon points="194.92 374.488 202.156 407.763 206.706 407.763 205.669 372.467 194.92 374.488"/><polygon points="321.607 374.488 314.371 407.763 309.822 407.763 310.858 372.467 321.607 374.488"/><polygon points="177.887 372.395 159.063 375.405 162.951 390.611 178.516 390.611 177.887 372.395"/><polygon points="357.464 375.405 344.793 424.963 336.825 424.963 338.641 372.395 357.464 375.405" style="fill:#526175"/><polygon points="338.641 372.395 357.464 375.405 353.576 390.611 338.012 390.611 338.641 372.395"/><path d="M347.78739,208.5612a15.00443,15.00443,0,0,0-14.4862-11.0945H183.22659a15.0044,15.0044,0,0,0-14.4861,11.0945l-14.5657,53.9629,14.157,85.6483H348.196l14.157-85.6483Z" style="fill:#d4e7fc"/><path d="M361.599,259.7305a157.35315,157.35315,0,0,1-27.40861,32.1691c-16.6,14.4964-60.504,41.6069-98.9817,45.0007-11.9961,1.058-5.2363,5.567,9.7486,11.2721H348.196l14.157-85.6483Z" style="fill:#bbdbfe"/><path d="M133.0812,250.7379l15.4258,5.0714a16.51322,16.51322,0,0,1,10.26309,9.78l21.7364,48.7184a11.533,11.533,0,0,0,10.5322,6.8338H258.264v38.8337H162.09419Z" style="fill:#9cbdeb"/><path d="M383.44669,250.7379l-15.4258,5.0714a16.51338,16.51338,0,0,0-10.2632,9.78l-21.7364,48.7184a11.53291,11.53291,0,0,1-10.5321,6.8338h-67.2253v38.8337h96.1698Z" style="fill:#9cbdeb"/><path d="M189.419,317.3392s-15.07111,16.1311-17.25151,22.1734c-2.1804,6.0424,4.10551,10.6619,13.8779,10.6619H258.264V317.3392Z" style="fill:#89b7e8"/><path d="M327.10889,317.3392s15.0712,16.1311,17.2515,22.1734c2.1804,6.0424-4.1055,10.6619-13.8779,10.6619H258.264V317.3392Z" style="fill:#89b7e8"/><path d="M171.735,258.2604s-10.03571,15.1153-12.67151,32.6528c-1.9213,12.7834,12.3799,32.7527,20.2747,42.6399a8.93793,8.93793,0,0,0,11.8045,1.9315c2.2039-1.407,4.8772-3.1989,7.92231-5.4007C208.057,323.5821,183.50869,263.8645,171.735,258.2604Z" style="fill:#bbdbfe"/><path d="M171.735,258.2604a82.70172,82.70172,0,0,0-4.47181,7.9568c-.9603,9.4184-1.7463,20.9981-.7026,27.3692,1.9562,11.9418,15.9293,35.5192,24.5927,37.9831,5.0798,1.4447.349-27.8373-4.4337-52.3111C181.479,268.721,175.83329,260.2111,171.735,258.2604Z" style="fill:#9cbdeb"/><path d="M408.68179,249.3697h-20.3136a9.54961,9.54961,0,0,0-8.9696,6.2719l-32.8578,89.9134a9.99461,9.99461,0,0,1-9.3874,6.5641H179.37459a9.99474,9.99474,0,0,1-9.3875-6.5641L137.1293,255.6416a9.54972,9.54972,0,0,0-8.9697-6.2719H107.8461a3.53661,3.53661,0,0,0-3.4274,4.409l28.0835,110.3361a20.01125,20.01125,0,0,0,19.393,15.0753h212.7374a20.01128,20.01128,0,0,0,19.3931-15.0753l28.0835-110.3361A3.53661,3.53661,0,0,0,408.68179,249.3697Z" style="fill:#bbdbfe"/><path d="M183.29969,319.877s-1.3602,19.8831,18.41731,21.1486c19.77739,1.2655,25.53219-1.6775,20.027,5.7066s-1.37161,20.5232,16.05119,17.0194,34.6525-4.4508,48.1551-4.6342c13.50271-.1835,24.8899-6.9983,24.8899-6.9983s6.0881,6.2695,33.0449,7.8561c26.95691,1.5865,37.0302-2.8557,33.5264-11.8028-3.5037-8.9471-55.1841-18.0885-55.1841-18.0885L212.735,309.1845Z" style="fill:#272726"/><path d="M324.35649,326.2106s16.1459-.751,31.5408,0,28.1615,7.1342,26.284,22.1537c-1.8774,15.0194-57.8248,3.7548-57.8248,3.7548Z" style="fill:#fefefe"/><path d="M338.34329,331.5695s13.2924-4.5885,13.1346,9.4561c0,6.5013-7.7987,10.1261-15.18689,4.0039A134.63472,134.63472,0,0,0,338.34329,331.5695Z" style="fill:#9cbdeb"/><path d="M330.74909,331.5695s13.2924-4.5885,13.1346,9.4561c0,6.5013-7.7986,10.1261-15.1869,4.0039A134.63284,134.63284,0,0,0,330.74909,331.5695Z" style="fill:#526175"/><path d="M237.43429,339.5855l26.0863-19.5704,1.9857-25.1369,32.192-29.4769s16.8956-6.7007,33.4169,2.8355c16.5214,9.5361-33.4169,61.8471-33.4169,61.8471l-19.5266,10.9417Z" style="fill:#526175"/><polygon points="299.877 267.029 294.042 235.77 291.265 240.245 292.519 264.01 299.877 267.029" style="fill:#d1bfbf"/><polygon points="288.949 238.749 293.774 233.151 296.925 265.588 294.672 264.612 288.949 238.749" style="fill:#fce3e3"/><polygon points="255.527 270.733 264.822 291.29 296.09 264.612 290.3 233.151 270.422 255.279 255.527 270.733" style="fill:#fefefe"/><line x1="287.63669" y1="241.676" x2="292.51939" y2="266.3175" style="fill:none;stroke:#526175;stroke-linecap:round;stroke-miterlimit:10;stroke-width:1.12646px;opacity:0.51"/><line x1="283.509" y1="245.9396" x2="288.39159" y2="270.5812" style="fill:none;stroke:#526175;stroke-linecap:round;stroke-miterlimit:10;stroke-width:1.12646px;opacity:0.51"/><line x1="279.38129" y1="250.2033" x2="284.26389" y2="274.8449" style="fill:none;stroke:#526175;stroke-linecap:round;stroke-miterlimit:10;stroke-width:1.12646px;opacity:0.51"/><line x1="275.25349" y1="254.467" x2="280.13619" y2="279.1086" style="fill:none;stroke:#526175;stroke-linecap:round;stroke-miterlimit:10;stroke-width:1.12646px;opacity:0.51"/><line x1="271.12579" y1="258.7307" x2="276.00849" y2="283.3723" style="fill:none;stroke:#526175;stroke-linecap:round;stroke-miterlimit:10;stroke-width:1.12646px;opacity:0.51"/><line x1="266.99809" y1="262.9944" x2="271.88069" y2="287.636" style="fill:none;stroke:#526175;stroke-linecap:round;stroke-miterlimit:10;stroke-width:1.12646px;opacity:0.51"/><line x1="262.87039" y1="267.2581" x2="267.753" y2="291.8997" style="fill:none;stroke:#526175;stroke-linecap:round;stroke-miterlimit:10;stroke-width:1.12646px;opacity:0.51"/><path d="M176.41509,292.6985s1.2582,44.4012,33.4841,44.7767c17.2065-.751,48.6391-11.2646,48.6391-11.2646l65.8182,25.9085s16.1459-3.3793,9.3871-22.5291C268.503,291.2904,268.503,292.7546,268.503,292.7546l-46.759-4.8436Z" style="fill:#7d95bd"/><path d="M251.54769,162.6965a22.27761,22.27761,0,0,0-18.2942-15.7547c-15.1826-2.5101-28.9296,12.6133-35.144,32.3032-6.21449,19.6899-24.5017,34.7358-33.8246,45.5-9.32289,10.7643-6.0958,48.4145,15.06011,52.3588,26.89289-51.2759,39.85909-63.1089,39.85909-63.1089l20.7936-32.3695Z" style="fill:#4c2a29"/><path d="M230.58379,176.6844l-13.2696-7.1065s-3.5987,5.9979-5.886,20.8357-21.072,26.7318-28.1483,33.3651c-6.1065,5.724-14.7734,24.4422-17.9178,42.8933,3.2497,5.3179,7.8611,9.2904,13.98291,10.4318,26.89289-51.276,39.85919-63.1088,39.85919-63.1088l7.4549-11.6052Z" style="fill:#020101"/><path d="M249.43229,157.792a22.154,22.154,0,0,0-6.5169-7.0537c-15.9578,1.3174-21.3817,18.1002-21.3817,18.1002l1.9625.7394A29.08079,29.08079,0,0,1,249.43229,157.792Z" style="fill:#fefefe"/><path d="M228.62369,194.9906s6.9555,8.2471,8.9585,27.9687c2.0031,19.7215,8.4717,39.9182,8.4717,39.9182l29.7472-16.2524s7.8887-.7387,6.4544,4.1128-11.833,4.5414-11.833,4.5414l-14.8958,15.4533,3.0116,6.3712-19.3726,2.871a6.83543,6.83543,0,0,1-7.5694-4.8663l-10.7318-37.1877Z" style="fill:#a84343"/><path d="M222.64329,244.0849c3.50471-3.1182,9.4436-7.4566,16.6596-9.0134-.6995-3.9367-1.3064-8.0333-1.7207-12.1123-2.003-19.7215-8.9585-27.9687-8.9585-27.9687l-7.7592,42.9303Z" style="fill:#fce3e3"/><path d="M229.81209,199.5245s5.5543,28.9659,2.5504,38.2592c-3.0039,9.2932-8.8674,12.9542-8.8674,12.9542s-7.9577,18.5866-1.75109,37.1731c-31.24821,8.7301-45.32891,4.7875-45.32891,4.7875s-6.5456-65.7864,18.0233-90.3982c7.60361-6.7588,26.4261-11.8867,26.4261-11.8867Z" style="fill:#fefefe"/><path d="M232.36249,188.676l-3.3794,14.3752s3.1916,15.2072,0,17.6479c-3.1916,2.4406-10.88909-25.7208-10.88909-25.7208l6.18979-20.894Z" style="fill:#c64f4f"/><path d="M226.03279,177.2432l-1.1479,2.0017s.6354,10.4915,5.6948,17.0148l1.7828-7.5837Z" style="fill:#4c2a29"/><path d="M223.49609,169.2842s-.3836,19.6975,13.9108,26.4965a3.74107,3.74107,0,0,0,4.3479-.8572c4.0683-4.4176,10.91021-17.1432,9.7929-32.227C241.43079,170.4606,230.03029,169.99,223.49609,169.2842Z" style="fill:#c64f4f"/><path d="M225.84539,173.069a4.981,4.981,0,1,1-4.9809-4.981A4.981,4.981,0,0,1,225.84539,173.069Z" style="fill:#c64f4f"/><line x1="219.20409" y1="171.4842" x2="224.28379" y2="176.6844" style="fill:none;stroke:#4c2a29;stroke-linecap:round;stroke-miterlimit:10;stroke-width:0.675875px"/><path d="M208.38939,258.458c-4.9345,4.517.7171,1.7929,5.37861,2.8686,4.66139,1.0757,5.66489,13.6905,5.66489,13.6905h.00011a61.59511,61.59511,0,0,1,4.06209-24.2792S213.32389,253.941,208.38939,258.458Z" style="fill:#c64f4f;mix-blend-mode:multiply;opacity:0.41000000000000003"/><line x1="246.05389" y1="262.8775" x2="239.99769" y2="266.3466" style="fill:none;stroke:#4c2a29;stroke-linecap:round;stroke-miterlimit:10;stroke-width:1.1518300000000001px"/><path d="M251.54769,162.6964a22.19172,22.19172,0,0,0-7.6234-11.219c-4.52129,1.8788-14.3765,7.8065-10.6708,22.9125,2.2166,8.4583,2.5467,15.2119,1.738,20.0323a20.3161,20.3161,0,0,0,2.4154,1.3584,3.74085,3.74085,0,0,0,4.3479-.8571C245.82309,190.5059,252.665,177.7803,251.54769,162.6964Z" style="fill:#fff6e7;mix-blend-mode:overlay;opacity:0.52"/><polyline points="246.054 181.625 245.39 186.938 243.018 185.705" style="fill:none;stroke:#4c2a29;stroke-miterlimit:10;stroke-width:0.7885200000000001px"/><path d="M245.21639,174.3899a4.882,4.882,0,0,0-6.0702-1.5137" style="fill:none;stroke:#4c2a29;stroke-linecap:round;stroke-miterlimit:10;stroke-width:1.12646px"/><path d="M243.68829,189.1714l-1.0104,1.2422a7.542,7.542,0,0,1-3.185-3.4752A16.6156,16.6156,0,0,0,243.68829,189.1714Z" style="fill:#fefefe"/><path d="M242.56109,179.245s-1.191-2.7431-5.1268-2.0275" style="fill:none;stroke:#4c2a29;stroke-linecap:round;stroke-miterlimit:10;stroke-width:1.12646px"/><path d="M234.75009,270.7326a10.42315,10.42315,0,0,0-4.1663.867l1.0126,3.5089a6.83509,6.83509,0,0,0,7.5693,4.8662l5.841-.8656A10.469,10.469,0,0,0,234.75009,270.7326Z" style="fill:#4c2a29;opacity:0.27"/><line x1="258.53829" y1="326.2106" x2="233.25349" y2="316.0725" style="fill:none;stroke:#526175;stroke-linecap:round;stroke-miterlimit:10;stroke-width:1.1518300000000001px"/><polygon points="293.902 234.893 296.09 233.151 301.494 270.733 299.231 268.237 293.902 234.893" style="fill:#362391"/><polygon points="301.494 270.733 281.035 255.408 249.229 289.897 268.503 303.109 301.494 270.733" style="fill:#623cea"/><polygon points="301.494 270.733 281.035 255.408 282.43 253.997 301.494 268.237 301.494 270.733" style="fill:#362391"/><path d="M243.02579,337.4752s5.1071-.3755,22.3794-5.2568c17.2724-4.8813,33.5034-1.1599,36.0892,8.8072,2.5859,9.9671-6.2381,20.1052-27.3591,18.6032-21.1211-1.5019-28.022,1.0484-38.65229.1487C224.85269,358.8779,227.52029,340.8522,243.02579,337.4752Z" style="fill:#9cbdeb"/><path d="M268.503,292.7546l-17.77721-1.8414a13.36867,13.36867,0,1,0,25.775,5.8117C268.50689,292.3957,268.503,292.7546,268.503,292.7546Z" style="fill:#526175"/><path d="M239.30289,301.8525s-26.6415-3.1552-37.58589-5.7746c-10.94451-2.6195-25.58361-4.161-22.48581-22.92s8.6671-45.4496,8.6671-45.4496l6.8898,49.3955Z" style="fill:#2a1214"/><path d="M256.11809,282.427a35.84173,35.84173,0,0,0,10.7796,1.6729c5.4297-.1324,6.55231.8349,6.55231.8349l-16.08731,4.4624-1.836-3.4851Z" style="fill:#2a1214"/><path d="M243.02579,340.0384s5.1071-.3327,22.3794-4.6579c17.2724-4.3252,33.5034-1.0277,36.0892,7.8039,2.5859,8.8316-6.2381,17.8147-27.3591,16.4839-21.1211-1.3308-28.022.9289-38.65229.1317C224.85269,359.0029,227.52029,343.0308,243.02579,340.0384Z" style="fill:#526175"/><path d="M178.16129,305.2622c1.9272,8.6139,5.9656,19.6426,14.3936,26.3073l15.7764-7.9874a36.6914,36.6914,0,0,1-8.992-20.4732A110.60373,110.60373,0,0,1,178.16129,305.2622Z" style="fill:#526175"/><path d="M209.775,219.6371l-7.45141,51.0955,43.7303,16.3336,8.6313-4.5996a1.61414,1.61414,0,0,1,2.36081,1.6241l-.09971.7999a1.64411,1.64411,0,0,0,1.8933,1.8265l13.2491-2.137a1.76555,1.76555,0,0,1,2.0466,1.743v.0282a1.7554,1.7554,0,0,1-.5221,1.2541,19.12711,19.12711,0,0,1-5.11019,3.685c-3.37941,4.5058-8.16681,9.0117-10.70141,9.2933-2.5345.2816-9.9809,2.8161-17.8039,1.4081-5.89369-1.0609-34.3599-9.9538-48.0422-14.2756a10.51962,10.51962,0,0,1-7.35649-10.1448c.14889-14.264,1.02849-44.612,5.65879-61.3631a10.55368,10.55368,0,0,1,4.3578-6.0678c4.1185-2.67,9.77941-3.1335,13.2946,1.5599A10.6597,10.6597,0,0,1,209.775,219.6371Z" style="fill:#c64f4f"/><path d="M184.66269,273.1579c-.0292,1.5915-.0495,3.067-.0635,4.4017a10.53548,10.53548,0,0,0,7.3677,10.1602c.8199.259,1.6956.5352,2.6134.8242a13.44694,13.44694,0,0,0-9.9176-15.3861Z" style="fill:#4c2a29;opacity:0.27"/><line x1="202.32359" y1="270.7326" x2="196.35509" y2="268.2368" style="fill:none;stroke:#4c2a29;stroke-linecap:round;stroke-miterlimit:10;stroke-width:1.1518300000000001px"/><line x1="267.79869" y1="291.4974" x2="258.53829" y2="294.2188" style="fill:none;stroke:#4c2a29;stroke-linecap:round;stroke-miterlimit:10;stroke-width:0.7885200000000001px"/><path d="M206.60909,241.3463,209.775,219.637a10.65911,10.65911,0,0,0-1.86481-7.9366c-3.5151-4.6933-9.176-4.2299-13.2946-1.5599a10.55349,10.55349,0,0,0-4.3578,6.0678c-1.845,6.6744-3.093,15.5086-3.938,24.6229C191.01259,239.6149,199.32089,238.2846,206.60909,241.3463Z" style="fill:#fce3e3"/><path d="M196.55479,268.3205l5.7909,2.2607,7.43031-50.9509a10.65115,10.65115,0,0,0-1.83321-7.8862,8.43166,8.43166,0,0,0-6.8576-3.5889c-3.4366,11.5802-6.5654,44.4556-7.5325,55.3315A4.737,4.737,0,0,0,196.55479,268.3205Z" style="fill:#fff6e7;mix-blend-mode:overlay;opacity:0.52"/><path d="M331.11519,268.2367a37.97964,37.97964,0,0,0-13.7515-4.7167c-1.3055,7.3324-.3773,17.9369,12.4611,24.9272C334.74969,279.3118,336.60959,271.4081,331.11519,268.2367Z" style="fill:#526175;mix-blend-mode:multiply;opacity:0.5"/><path d="M271.52079,294.0957c-5.40079,4.5779-13.5623,13.9525-2.0814,21.9768,14.0442,9.8156,56.348,20.6051,65.92961,22.9657a24.83313,24.83313,0,0,0-1.62541-9.4482C291.92129,305.0382,276.90949,296.8272,271.52079,294.0957Z" style="fill:#fff6e7;mix-blend-mode:overlay;opacity:0.22"/></g></g></svg>